# xmcd
#
# Track frame offsets: 
#        150
#        19971
#        44656
#        72791
#        91094
#
# Disc length: 1460 seconds
#
# Revision: 0
# Processed by: cddbd v1.5.2PL0 Copyright (c) Steve Scherf et al.
# Submitted via: ExactAudioCopyFreeDBPlugin 1.0
#
DISCID=3b05b205
DTITLE=Wang Chung - Dance Hall Days (Orchestral Version) EP
DYEAR=2019
DGENRE=Rock
TTITLE0=Dance Hall Days (Orchestral Version)
TTITLE1=Dance Hall Days (Daniele Baldelli and DJ Rocca Vocal Remix)
TTITLE2=Dance Hall Days (Kim and Buran Disco Mix)
TTITLE3=Dance Hall Days (Psychmagik Remix)
TTITLE4=Dance Hall Days (Orcapella)
EXTD=
EXTT0=
EXTT1=
EXTT2=
EXTT3=
EXTT4=
PLAYORDER=
